<svg width="34" height="34" viewBox="0 0 34 34" fill="none" xmlns="http://www.w3.org/2000/svg">
<path id="Vector" d="M33.4998 30.2555L33.122 29.9222C32.0506 28.967 31.1125 27.872 30.3331 26.6666C29.4814 25.0031 28.9714 23.1859 28.8331 21.3222V15.8333C28.8405 12.9062 27.7787 10.0771 25.8473 7.87769C23.9158 5.67825 21.2477 4.25979 18.3442 3.88883V2.4555C18.3442 2.0621 18.1879 1.68481 17.9098 1.40663C17.6316 1.12845 17.2543 0.972168 16.8609 0.972168C16.4675 0.972168 16.0902 1.12845 15.812 1.40663C15.5338 1.68481 15.3776 2.0621 15.3776 2.4555V3.91106C12.5001 4.30875 9.8642 5.73579 7.95815 7.92784C6.0521 10.1199 5.00504 12.9284 5.01089 15.8333V21.3222C4.87262 23.1859 4.3626 25.0031 3.51089 26.6666C2.74521 27.8692 1.82222 28.9641 0.76645 29.9222L0.388672 30.2555V33.3888H33.4998V30.2555Z" fill="#0D6EFD"/>
</svg>
