<svg width="15" height="18" viewBox="0 0 15 18" fill="none" xmlns="http://www.w3.org/2000/svg">
<g id="carbon:location" clip-path="url(#clip0_144_295)">
<path id="Vector" d="M7.36506 10.2273C6.75823 10.2273 6.16503 10.0474 5.66047 9.71023C5.15591 9.37309 4.76265 8.89391 4.53043 8.33327C4.2982 7.77263 4.23744 7.15572 4.35583 6.56055C4.47422 5.96539 4.76643 5.41869 5.19553 4.98959C5.62462 4.5605 6.17132 4.26828 6.76649 4.1499C7.36166 4.03151 7.97856 4.09227 8.5392 4.3245C9.09984 4.55672 9.57902 4.94998 9.91616 5.45454C10.2533 5.9591 10.4332 6.5523 10.4332 7.15913C10.4323 7.97256 10.1087 8.7524 9.53352 9.32758C8.95833 9.90277 8.17849 10.2263 7.36506 10.2273ZM7.36506 5.31822C7.00096 5.31822 6.64504 5.42618 6.3423 5.62847C6.03957 5.83075 5.80361 6.11826 5.66428 6.45464C5.52495 6.79102 5.48849 7.16117 5.55952 7.51827C5.63055 7.87537 5.80588 8.20339 6.06334 8.46085C6.32079 8.7183 6.64881 8.89363 7.00592 8.96466C7.36302 9.0357 7.73316 8.99924 8.06954 8.85991C8.40593 8.72057 8.69344 8.48462 8.89572 8.18188C9.098 7.87915 9.20597 7.52322 9.20597 7.15913C9.20548 6.67104 9.01137 6.20308 8.66624 5.85795C8.32111 5.51281 7.85315 5.3187 7.36506 5.31822Z" fill="#E33629"/>
<path id="Vector_2" d="M7.36328 17.5909L2.18665 11.4858C2.11472 11.3941 2.04353 11.3019 1.9731 11.2091C1.08929 10.044 0.61164 8.62141 0.613285 7.15906C0.613285 5.36885 1.32444 3.65196 2.59031 2.38609C3.85618 1.12022 5.57307 0.409058 7.36328 0.409058C9.15349 0.409058 10.8704 1.12022 12.1363 2.38609C13.4021 3.65196 14.1133 5.36885 14.1133 7.15906C14.1147 8.62071 13.6373 10.0426 12.7541 11.2072L12.7535 11.2091C12.7535 11.2091 12.5694 11.4508 12.5418 11.4834L7.36328 17.5909ZM2.95308 10.4696C2.95308 10.4696 3.09606 10.6586 3.12858 10.6991L7.36328 15.6935L11.6035 10.6924C11.6305 10.6586 11.7741 10.4684 11.7747 10.4678C12.4971 9.51613 12.8875 8.35383 12.886 7.15906C12.886 5.69434 12.3042 4.28961 11.2684 3.2539C10.2327 2.21819 8.828 1.63633 7.36328 1.63633C5.89857 1.63633 4.49384 2.21819 3.45813 3.2539C2.42241 4.28961 1.84056 5.69434 1.84056 7.15906C1.83904 8.3546 2.22988 9.51762 2.95308 10.4696Z" fill="#E33629"/>
</g>
<defs>
<clipPath id="clip0_144_295">
<rect width="14.7273" height="18" fill="white"/>
</clipPath>
</defs>
</svg>
