<svg width="14" height="14" viewBox="0 0 14 14" fill="none" xmlns="http://www.w3.org/2000/svg">
<g id="solar:star-bold" clip-path="url(#clip0_144_350)">
<path id="Vector" d="M5.00728 2.38561C5.89418 0.795202 6.33728 0 7.00019 0C7.66309 0 8.10619 0.795202 8.99309 2.38561L9.22269 2.79721C9.47469 3.24941 9.60069 3.47551 9.79669 3.62461C9.99269 3.77371 10.2377 3.82901 10.7277 3.93961L11.1729 4.04041C12.8949 4.43031 13.7552 4.62491 13.9603 5.28362C14.1647 5.94162 13.5781 6.62832 12.4042 8.00102L12.1004 8.35593C11.7672 8.74583 11.5999 8.94113 11.525 9.18193C11.4501 9.42343 11.4753 9.68383 11.5257 10.2039L11.5719 10.6778C11.749 12.5097 11.8379 13.4253 11.3017 13.832C10.7655 14.2394 9.9591 13.8677 8.34769 13.1257L7.92979 12.9339C7.47199 12.7225 7.24309 12.6175 7.00019 12.6175C6.75728 12.6175 6.52838 12.7225 6.07058 12.9339L5.65338 13.1257C4.04128 13.8677 3.23487 14.2387 2.69937 13.8327C2.16247 13.4253 2.25137 12.5097 2.42847 10.6778L2.47467 10.2046C2.52507 9.68383 2.55027 9.42343 2.47467 9.18263C2.40047 8.94113 2.23317 8.74583 1.89997 8.35663L1.59617 8.00102C0.422266 6.62902 -0.164336 5.94232 0.0400646 5.28362C0.245165 4.62491 1.10617 4.42961 2.82817 4.04041L3.27337 3.93961C3.76268 3.82901 4.00698 3.77371 4.20368 3.62461C4.39968 3.47551 4.52568 3.24941 4.77768 2.79721L5.00728 2.38561Z" fill="#F9D73F"/>
</g>
<defs>
<clipPath id="clip0_144_350">
<rect width="14" height="14" fill="white"/>
</clipPath>
</defs>
</svg>
