<svg width="14" height="14" viewBox="0 0 14 14" fill="none" xmlns="http://www.w3.org/2000/svg">
<g id="solar:star-bold" clip-path="url(#clip0_144_358)">
<path id="Vector" d="M5.44397 2.62913L5.44394 2.62919L5.21444 3.0406C5.20091 3.06488 5.18756 3.08891 5.17435 3.11268C4.96273 3.49353 4.78767 3.80859 4.5064 4.02256L4.50572 4.02308C4.22052 4.23926 3.87338 4.31724 3.46086 4.40992C3.43542 4.41563 3.40973 4.42141 3.38379 4.42727C3.38373 4.42728 3.38367 4.42729 3.38361 4.42731L2.93859 4.52807L2.9384 4.52811C2.06051 4.72653 1.46035 4.86382 1.04865 5.02611C0.64663 5.18459 0.553194 5.31772 0.517529 5.43203C0.480434 5.55182 0.484333 5.72708 0.724404 6.10848C0.968017 6.49551 1.37847 6.97749 1.97609 7.67596L1.97633 7.67625L2.27979 8.03146C2.29723 8.05182 2.31451 8.07195 2.3316 8.09187C2.61423 8.42121 2.84721 8.6927 2.95262 9.03578C3.05825 9.37489 3.02326 9.7324 2.98017 10.1726C2.97758 10.199 2.97496 10.2257 2.97235 10.2528L2.97231 10.2532L2.92615 10.7259C2.92614 10.7261 2.92613 10.7262 2.92612 10.7263C2.83603 11.6582 2.77489 12.3024 2.79567 12.7671C2.81641 13.231 2.91464 13.3684 3.00161 13.4344C3.07955 13.4935 3.21689 13.5489 3.63487 13.4291C4.05925 13.3074 4.62238 13.0499 5.44433 12.6715L5.44453 12.6714L5.86097 12.48C5.86117 12.4799 5.86137 12.4798 5.86157 12.4797C5.88501 12.4689 5.90823 12.4581 5.93124 12.4475C6.31698 12.2688 6.6434 12.1175 7.00019 12.1175C7.35697 12.1175 7.68339 12.2688 8.06913 12.4475C8.09213 12.4581 8.11534 12.4689 8.13878 12.4797C8.13899 12.4798 8.1392 12.4799 8.13941 12.48L8.55625 12.6713L8.55682 12.6716C9.37852 13.0499 9.94137 13.3076 10.3657 13.4293C10.7836 13.5491 10.9209 13.4934 10.9992 13.4339L10.9995 13.4337C11.0859 13.3681 11.1841 13.2311 11.2048 12.7671C11.2255 12.3023 11.1643 11.658 11.0742 10.7259L11.0281 10.2524L11.028 10.2522C11.0254 10.2254 11.0229 10.199 11.0203 10.1729C10.977 9.73122 10.942 9.3738 11.0474 9.03382L11.0476 9.03342C11.1535 8.6927 11.3854 8.4221 11.6674 8.09286C11.6849 8.0725 11.7025 8.05193 11.7203 8.03109L11.7206 8.03078L12.0242 7.67606C12.0243 7.676 12.0243 7.67594 12.0244 7.67588C12.6219 6.97714 13.0323 6.49501 13.276 6.10796C13.5163 5.72614 13.5199 5.55121 13.4828 5.43194C13.4471 5.31764 13.3538 5.18472 12.9521 5.02638C12.5405 4.86414 11.9405 4.72687 11.0625 4.52807L10.6176 4.42734L5.44397 2.62913ZM5.44397 2.62913C5.89559 1.81928 6.2077 1.26209 6.48469 0.900412C6.76141 0.539092 6.9085 0.5 7.00019 0.5C7.09188 0.5 7.23896 0.539092 7.51568 0.900412C7.79267 1.26209 8.10478 1.81928 8.5564 2.62913L8.55643 2.62919M5.44397 2.62913L8.55643 2.62919M8.55643 2.62919L8.78593 3.0406M8.55643 2.62919L8.78593 3.0406M8.78593 3.0406C8.78597 3.04066 8.786 3.04073 8.78603 3.04079C8.79953 3.065 8.81284 3.08896 8.82602 3.11267M8.78593 3.0406L8.82602 3.11267M8.82602 3.11267C9.03764 3.49352 9.2127 3.80859 9.49397 4.02255M8.82602 3.11267L9.49397 4.02255M9.49397 4.02255C9.7787 4.23915 10.127 4.31727 10.5392 4.40973M9.49397 4.02255L10.5392 4.40973M10.5392 4.40973C10.565 4.41551 10.591 4.42134 10.6173 4.42727L10.5392 4.40973Z" stroke="#F9D73F"/>
</g>
<defs>
<clipPath id="clip0_144_358">
<rect width="14" height="14" fill="white"/>
</clipPath>
</defs>
</svg>
