<svg width="18" height="18" viewBox="0 0 18 18" fill="none" xmlns="http://www.w3.org/2000/svg">
<g id="material-symbols-light:verified" clip-path="url(#clip0_144_330)">
<path id="Vector" d="M6.18967 17.7462L4.70702 15.1332L1.88731 14.4972L2.16431 11.4543L0.261719 9.17568L2.1652 6.89702L1.88731 3.85509L4.70791 3.21904L6.18967 0.605177L8.8327 1.77236L11.4757 0.604248L12.9584 3.21904L15.7781 3.85417L15.5011 6.89702L17.4046 9.17568L15.5029 11.4543L15.779 14.4972L12.9584 15.1323L11.4766 17.7471L8.8327 16.579L6.18967 17.7462ZM7.9005 11.8295L12.3023 7.22572L11.6737 6.55717L7.9005 10.5035L5.99169 8.51826L5.36311 9.17568L7.9005 11.8295Z" fill="#0D6EFD"/>
</g>
<defs>
<clipPath id="clip0_144_330">
<rect width="18" height="18" fill="white"/>
</clipPath>
</defs>
</svg>
